<?xml version="1.0" standalone="no"?><!DOCTYPE svg PUBLIC "-//W3C//DTD SVG 1.1//EN" "http://www.w3.org/Graphics/SVG/1.1/DTD/svg11.dtd"><svg t="1611628201991" class="icon" viewBox="0 0 1024 1024" version="1.1" xmlns="http://www.w3.org/2000/svg" p-id="61360" xmlns:xlink="http://www.w3.org/1999/xlink" width="128" height="128"><defs><style type="text/css"></style></defs><path d="M861.866667 755.2c-12.8 0-21.333333-8.533333-21.333334-21.333333V328.533333c0-12.8 8.533333-21.333333 21.333334-21.333333s21.333333 8.533333 21.333333 21.333333v405.333334c0 12.8-8.533333 21.333333-21.333333 21.333333zM618.666667 998.4H213.333333c-55.466667 0-98.133333-42.666667-98.133333-98.133333V162.133333c0-55.466667 42.666667-98.133333 98.133333-98.133333h396.8c12.8 0 21.333333 8.533333 21.333334 21.333333s-8.533333 21.333333-21.333334 21.333334H213.333333c-29.866667 0-55.466667 25.6-55.466666 55.466666v738.133334c0 29.866667 25.6 55.466667 55.466666 55.466666h405.333334c12.8 0 21.333333 8.533333 21.333333 21.333334s-8.533333 21.333333-21.333333 21.333333z" fill="#bfbfbf" p-id="61361"></path><path d="M776.533333 994.133333H682.666667c-12.8 0-21.333333-8.533333-21.333334-21.333333s8.533333-21.333333 21.333334-21.333333h93.866666c34.133333 0 64-29.866667 64-64v-85.333334c0-12.8 8.533333-21.333333 21.333334-21.333333s21.333333 8.533333 21.333333 21.333333v85.333334c0 59.733333-46.933333 106.666667-106.666667 106.666666z" fill="#bfbfbf" p-id="61362"></path><path d="M857.6 358.4h-170.666667c-59.733333 0-106.666667-46.933333-106.666666-106.666667v-170.666666c0-12.8 8.533333-21.333333 21.333333-21.333334s21.333333 8.533333 21.333333 21.333334v170.666666c0 34.133333 29.866667 64 64 64h170.666667c12.8 0 21.333333 8.533333 21.333333 21.333334s-8.533333 21.333333-21.333333 21.333333z" fill="#bfbfbf" p-id="61363"></path><path d="M857.6 345.6c-4.266667 0-12.8 0-17.066667-4.266667L597.333333 98.133333c-8.533333-8.533333-8.533333-21.333333 0-29.866666s21.333333-8.533333 29.866667 0l243.2 243.2c8.533333 8.533333 8.533333 21.333333 0 29.866666 0 4.266667-8.533333 4.266667-12.8 4.266667zM605.866667 477.866667h-384c-12.8 0-21.333333-8.533333-21.333334-21.333334s8.533333-21.333333 21.333334-21.333333h384c12.8 0 21.333333 8.533333 21.333333 21.333333s-8.533333 21.333333-21.333333 21.333334zM776.533333 563.2h-384c-12.8 0-21.333333-8.533333-21.333333-21.333333s8.533333-21.333333 21.333333-21.333334h384c12.8 0 21.333333 8.533333 21.333334 21.333334s-8.533333 21.333333-21.333334 21.333333zM307.2 563.2h-85.333333c-12.8 0-21.333333-8.533333-21.333334-21.333333s8.533333-21.333333 21.333334-21.333334h85.333333c12.8 0 21.333333 8.533333 21.333333 21.333334s-8.533333 21.333333-21.333333 21.333333z" fill="#bfbfbf" p-id="61364"></path><path d="M644.266667 733.866667c-38.4 0-72.533333-34.133333-72.533334-72.533334s34.133333-72.533333 72.533334-72.533333c38.4 0 72.533333 34.133333 72.533333 72.533333s-34.133333 72.533333-72.533333 72.533334z m0-102.4c-17.066667 0-29.866667 12.8-29.866667 29.866666s12.8 29.866667 29.866667 29.866667 29.866667-12.8 29.866666-29.866667-12.8-29.866667-29.866666-29.866666z" fill="#bfbfbf" p-id="61365"></path><path d="M789.333333 925.866667c-8.533333 0-12.8-4.266667-17.066666-8.533334l-72.533334-98.133333c0-4.266667-4.266667-4.266667-8.533333-4.266667s-12.8 0-17.066667 8.533334l-42.666666 59.733333c-8.533333 12.8-25.6 21.333333-42.666667 21.333333s-34.133333-8.533333-42.666667-21.333333l-136.533333-166.4c-4.266667-4.266667-8.533333-4.266667-8.533333-4.266667s-4.266667 0-8.533334 4.266667l-157.866666 200.533333c-8.533333 8.533333-21.333333 12.8-29.866667 4.266667-8.533333-8.533333-12.8-21.333333-4.266667-29.866667l157.866667-200.533333c8.533333-12.8 25.6-21.333333 42.666667-21.333333s34.133333 8.533333 42.666666 21.333333l136.533334 166.4c4.266667 4.266667 8.533333 4.266667 8.533333 4.266667s4.266667 0 8.533333-4.266667l46.933334-64c17.066667-17.066667 34.133333-21.333333 51.2-21.333333 17.066667 0 29.866667 8.533333 38.4 21.333333l72.533333 98.133333c8.533333 8.533333 4.266667 21.333333-4.266667 29.866667-4.266667 4.266667-8.533333 4.266667-12.8 4.266667z" fill="#bfbfbf" p-id="61366"></path></svg>