<?xml version="1.0" standalone="no"?><!DOCTYPE svg PUBLIC "-//W3C//DTD SVG 1.1//EN" "http://www.w3.org/Graphics/SVG/1.1/DTD/svg11.dtd"><svg t="1611629512583" class="icon" viewBox="0 0 1024 1024" version="1.1" xmlns="http://www.w3.org/2000/svg" p-id="99431" xmlns:xlink="http://www.w3.org/1999/xlink" width="128" height="128"><defs><style type="text/css"></style></defs><path d="M682.666667 554.666667H42.666667a42.666667 42.666667 0 0 1 0-85.333334h640a42.666667 42.666667 0 0 1 0 85.333334z" p-id="99432" fill="#bfbfbf"></path><path d="M768 682.666667a128 128 0 0 1-128-128v-85.333334a128 128 0 0 1 256 0v85.333334a128 128 0 0 1-128 128z m0-256a42.666667 42.666667 0 0 0-42.666667 42.666666v85.333334a42.666667 42.666667 0 0 0 85.333334 0v-85.333334a42.666667 42.666667 0 0 0-42.666667-42.666666z" p-id="99433" fill="#bfbfbf"></path><path d="M981.333333 554.666667h-128a42.666667 42.666667 0 0 1 0-85.333334h128a42.666667 42.666667 0 0 1 0 85.333334z" p-id="99434" fill="#bfbfbf"></path></svg>