<?xml version="1.0" standalone="no"?><!DOCTYPE svg PUBLIC "-//W3C//DTD SVG 1.1//EN" "http://www.w3.org/Graphics/SVG/1.1/DTD/svg11.dtd"><svg t="1611628498509" class="icon" viewBox="0 0 1024 1024" version="1.1" xmlns="http://www.w3.org/2000/svg" p-id="71000" xmlns:xlink="http://www.w3.org/1999/xlink" width="128" height="128"><defs><style type="text/css"></style></defs><path d="M0 0h1024v1024H0z" fill="#bfbfbf" fill-opacity=".01" p-id="71001"></path><path d="M557.248 507.968l113.152 113.152a32 32 0 0 1-42.24 47.904l-3.008-2.656L544 585.216V864a32 32 0 0 1-64 0v-278.784l-81.152 81.152a32 32 0 0 1-47.904-42.24l2.656-3.008 113.152-113.152a64 64 0 0 1 90.496 0zM512 160c131.2 0 239.392 98.752 254.272 225.984A224 224 0 0 1 736 832l-3.744-0.224a32 32 0 0 1 0-63.552L736 768a160 160 0 0 0 160-160 160.128 160.128 0 0 0-138.336-158.592l-49.216-6.656-5.76-49.344a192.032 192.032 0 0 0-381.344 0l-5.76 49.408-49.28 6.624a160.032 160.032 0 0 0 14.752 318.4L288 768a32 32 0 0 1 3.744 63.776L288 832a224 224 0 0 1-30.24-445.984A256 256 0 0 1 512 160z" fill="#bfbfbf" p-id="71002"></path></svg>